<svg xmlns="http://www.w3.org/2000/svg" viewBox="0 0 900 480" width="100%" height="100%">
  <defs>
    <linearGradient id="bgGrad" x1="0%" y1="0%" x2="100%" y2="100%">
      <stop offset="0%" stop-color="#0b0f19"/>
      <stop offset="100%" stop-color="#111827"/>
    </linearGradient>
    <linearGradient id="bkashGrad" x1="0%" y1="0%" x2="100%" y2="100%">
      <stop offset="0%" stop-color="#e2136e"/>
      <stop offset="100%" stop-color="#9a0847"/>
    </linearGradient>
  </defs>

  <rect width="900" height="480" rx="16" fill="url(#bgGrad)"/>
  <rect width="898" height="478" x="1" y="1" rx="15" fill="none" stroke="#ffffff" stroke-opacity="0.1" stroke-width="1"/>

  <!-- Top Bar -->
  <rect x="20" y="20" width="860" height="44" rx="10" fill="#182234" stroke="#ffffff" stroke-opacity="0.08"/>
  <text x="40" y="47" fill="#ffffff" font-family="-apple-system, BlinkMacSystemFont, sans-serif" font-size="14" font-weight="700">Billing &amp; Instant bKash / Nagad / Rocket MFS Checkout</text>

  <!-- Left Side: EMVCo Bangla QR -->
  <rect x="40" y="85" width="380" height="365" rx="12" fill="#111827" stroke="#374151"/>
  <rect x="60" y="105" width="340" height="45" rx="8" fill="url(#bkashGrad)"/>
  <text x="230" y="133" text-anchor="middle" fill="#ffffff" font-family="-apple-system, BlinkMacSystemFont, sans-serif" font-size="15" font-weight="700">bKash / Nagad Bangla QR</text>

  <!-- QR Visual Box -->
  <rect x="130" y="165" width="200" height="200" rx="12" fill="#ffffff" stroke="#e2136e" stroke-width="3"/>
  <!-- Simulated QR inner elements -->
  <rect x="145" y="180" width="45" height="45" fill="#000000"/>
  <rect x="153" y="188" width="29" height="29" fill="#ffffff"/>
  <rect x="161" y="196" width="13" height="13" fill="#000000"/>

  <rect x="270" y="180" width="45" height="45" fill="#000000"/>
  <rect x="278" y="188" width="29" height="29" fill="#ffffff"/>
  <rect x="286" y="196" width="13" height="13" fill="#000000"/>

  <rect x="145" y="305" width="45" height="45" fill="#000000"/>
  <rect x="153" y="313" width="29" height="29" fill="#ffffff"/>
  <rect x="161" y="321" width="13" height="13" fill="#000000"/>

  <!-- Center bKash icon overlay -->
  <circle cx="230" cy="265" r="22" fill="#e2136e"/>
  <text x="230" y="271" text-anchor="middle" fill="#ffffff" font-family="-apple-system, BlinkMacSystemFont, sans-serif" font-size="14" font-weight="900">৳</text>

  <text x="230" y="390" text-anchor="middle" fill="#94a3b8" font-family="-apple-system, BlinkMacSystemFont, sans-serif" font-size="12">Scan with bKash / Nagad App</text>

  <!-- Right Side: Claim Transaction -->
  <rect x="450" y="85" width="410" height="365" rx="12" fill="#111827" stroke="#374151"/>
  <text x="470" y="115" fill="#ffffff" font-family="-apple-system, BlinkMacSystemFont, sans-serif" font-size="15" font-weight="700">Submit Payment Transaction ID (TrxID)</text>
  <text x="470" y="135" fill="#94a3b8" font-family="-apple-system, BlinkMacSystemFont, sans-serif" font-size="12">Instant activation via automated MFS transaction check</text>

  <text x="470" y="180" fill="#cbd5e1" font-family="-apple-system, BlinkMacSystemFont, sans-serif" font-size="12" font-weight="600">Selected Plan: Growth (Monthly)</text>
  <text x="470" y="200" fill="#34d399" font-family="-apple-system, BlinkMacSystemFont, sans-serif" font-size="14" font-weight="700">Amount: ৳ 1,990 BDT</text>

  <rect x="470" y="225" width="370" height="42" rx="8" fill="#1f293d" stroke="#374151"/>
  <text x="485" y="251" fill="#94a3b8" font-family="monospace" font-size="13">TrxID: BKH9827361A</text>

  <rect x="470" y="285" width="370" height="40" rx="8" fill="url(#bkashGrad)"/>
  <text x="655" y="310" text-anchor="middle" fill="#ffffff" font-family="-apple-system, BlinkMacSystemFont, sans-serif" font-size="13" font-weight="700">Claim Payment &amp; Activate Plan</text>

  <rect x="470" y="340" width="370" height="36" rx="8" fill="#10b981" fill-opacity="0.15"/>
  <text x="655" y="363" text-anchor="middle" fill="#34d399" font-family="-apple-system, BlinkMacSystemFont, sans-serif" font-size="12" font-weight="600">✓ Instant Automatic Subscription Renewal</text>
</svg>
